<svg width="75" height="76" viewBox="0 0 75 76" fill="none" xmlns="http://www.w3.org/2000/svg">
<path d="M41.326 13.0148L44.2189 10.1277C49.8997 4.45808 59.1482 4.31775 64.8617 9.95468C67.0266 12.0954 68.4655 14.8591 68.9758 17.8577C69.4862 20.8563 69.0424 23.9392 67.707 26.6732C67.0664 27.9792 66.8507 29.4523 67.0895 30.8866C67.3287 32.321 68.0105 33.645 69.0402 34.6738C70.9335 32.7799 72.4341 30.5322 73.4566 28.0592C74.4792 25.5863 75.0037 22.9364 75 20.2612C74.9959 17.5859 74.4643 14.9376 73.4347 12.4675C72.4051 9.99745 70.8978 7.75403 68.9992 5.86545C61.0099 -2.06315 48.0417 -1.90537 40.0747 6.0455L12.5007 33.5642L10.2339 31.3018C4.45671 25.5361 4.41989 16.1114 10.299 10.4481C12.4752 8.35823 15.2477 6.99399 18.2338 6.54367C21.22 6.09336 24.2725 6.57916 26.9703 7.93401C28.2016 8.56375 29.6008 8.78902 30.9681 8.57767C32.3354 8.36632 33.6008 7.72916 34.5835 6.75717L34.6538 6.68738C34.6757 6.6657 34.693 6.6399 34.7049 6.61146C34.7167 6.58306 34.7228 6.55258 34.7228 6.52181C34.7228 6.49103 34.7167 6.46055 34.7049 6.43215C34.693 6.40375 34.6757 6.37795 34.6538 6.35623C30.8587 2.66373 25.7729 0.589655 20.4728 0.572886C15.1726 0.55612 10.0738 2.59797 6.25522 6.26639C-1.97032 14.1913 -1.94093 27.3696 6.14363 35.4382L33.7094 62.9494L30.7812 65.8718C25.1003 71.5415 15.8515 71.6818 10.1383 66.0449C7.97335 63.9043 6.53465 61.1404 6.02426 58.1419C5.51391 55.1433 5.95746 52.0605 7.29267 49.3264C7.93325 48.0203 8.14915 46.5472 7.91022 45.1131C7.67127 43.6787 6.98939 42.3544 5.95987 41.3257C4.06662 43.2198 2.56583 45.4673 1.54322 47.9401C0.520601 50.4133 -0.0037793 53.0629 2.05037e-05 55.7384C0.00382033 58.4136 0.535726 61.062 1.56536 63.5319C2.595 66.0022 4.10218 68.2456 6.00079 70.1341C13.9897 78.0631 26.9584 77.9057 34.9254 69.9544L62.535 42.399L64.8104 44.6699C70.4912 50.3395 70.6319 59.5697 64.9837 65.2716C62.8389 67.4326 60.0696 68.8681 57.0651 69.3779C54.0606 69.8872 50.9717 69.4443 48.2321 68.1116C46.9231 67.4719 45.4464 67.2562 44.0087 67.4953C42.571 67.734 41.2438 68.4152 40.213 69.4436C42.1109 71.3332 44.3628 72.8312 46.8406 73.8517C49.3187 74.8722 51.9735 75.3957 54.6543 75.392C57.3348 75.3879 59.9885 74.857 62.4632 73.8294C64.9384 72.8018 67.1862 71.2975 69.0785 69.4027C77.0232 61.4296 76.8651 48.4866 68.8984 40.5357L41.326 13.0148ZM37.8257 58.8394L16.6181 37.6738L37.2082 17.1248L58.4157 38.2905L37.8257 58.8394Z" fill="#16CCBA"/>
</svg>
