<svg width="20" height="20" viewBox="0 0 20 20" fill="none" xmlns="http://www.w3.org/2000/svg">
<path fill-rule="evenodd" clip-rule="evenodd" d="M13.6822 2.16913C13.644 1.88535 13.4026 1.66663 13.1105 1.66663C12.7919 1.66663 12.5336 1.92693 12.5336 2.24802V2.89081H7.47345V2.24802L7.46819 2.16913C7.42998 1.88535 7.1886 1.66663 6.89653 1.66663C6.57791 1.66663 6.31961 1.92693 6.31961 2.24802V2.90525C3.95546 3.06807 2.5 4.5999 2.5 7.07145V14.0867C2.5 16.7393 4.13195 18.3333 6.74688 18.3333H13.253C15.8711 18.3333 17.4999 16.766 17.4999 14.1453V7.07145C17.5075 4.59902 16.0567 3.06762 13.6874 2.90518V2.24802L13.6822 2.16913ZM12.5336 4.05361V4.79901L12.5389 4.87791C12.5771 5.16168 12.8184 5.38041 13.1105 5.38041C13.4291 5.38041 13.6874 5.12011 13.6874 4.79901V4.07079C15.4112 4.21421 16.3517 5.25225 16.3461 7.06967V7.40636H3.65386V7.07146C3.65386 5.25519 4.59939 4.21495 6.31961 4.07091V4.79901L6.32488 4.87791C6.36308 5.16168 6.60446 5.38041 6.89653 5.38041C7.21516 5.38041 7.47345 5.12011 7.47345 4.79901V4.05361H12.5336ZM3.65386 8.56915V14.0867C3.65386 16.0889 4.76128 17.1705 6.74689 17.1705H13.2531C15.2455 17.1705 16.3461 16.1115 16.3461 14.1453L16.3461 8.56915H3.65386ZM14.001 11.0152C14.001 10.6941 13.7427 10.4338 13.4241 10.4338L13.3387 10.4391C13.0571 10.4776 12.84 10.7209 12.84 11.0152C12.84 11.3363 13.0983 11.5966 13.4241 11.5966L13.5024 11.5913C13.784 11.5528 14.001 11.3096 14.001 11.0152ZM10.0106 10.4338C10.3293 10.4338 10.5876 10.6941 10.5876 11.0152C10.5876 11.3096 10.3705 11.5528 10.0889 11.5913L10.0106 11.5966C9.68488 11.5966 9.42658 11.3363 9.42658 11.0152C9.42658 10.7209 9.64362 10.4776 9.92522 10.4391L10.0106 10.4338ZM7.16702 11.0152C7.16702 10.6941 6.90873 10.4338 6.5901 10.4338L6.50469 10.4391C6.2231 10.4776 6.00605 10.7209 6.00605 11.0152C6.00605 11.3363 6.26435 11.5966 6.58298 11.5966L6.66839 11.5913C6.94998 11.5528 7.16702 11.3096 7.16702 11.0152ZM13.4241 13.4466C13.7427 13.4466 14.001 13.7069 14.001 14.028C14.001 14.3224 13.784 14.5656 13.5024 14.6041L13.4241 14.6094C13.0983 14.6094 12.84 14.3491 12.84 14.028C12.84 13.7337 13.0571 13.4904 13.3387 13.452L13.4241 13.4466ZM10.5876 14.028C10.5876 13.7069 10.3293 13.4466 10.0106 13.4466L9.92522 13.452C9.64362 13.4904 9.42658 13.7337 9.42658 14.028C9.42658 14.3491 9.68488 14.6094 10.0106 14.6094L10.0889 14.6041C10.3705 14.5656 10.5876 14.3224 10.5876 14.028ZM6.5901 13.4466C6.90873 13.4466 7.16702 13.7069 7.16702 14.028C7.16702 14.3224 6.94998 14.5656 6.66839 14.6041L6.58298 14.6094C6.26435 14.6094 6.00605 14.3491 6.00605 14.028C6.00605 13.7337 6.2231 13.4904 6.50469 13.452L6.5901 13.4466Z" fill="#F7F7F7"/>
</svg>
