<svg width="16" height="16" viewBox="0 0 16 16" fill="none" xmlns="http://www.w3.org/2000/svg">
<g clip-path="url(#clip0_212_4807)">
<path d="M13.7141 0C13.3985 0 13.1427 0.255837 13.1427 0.571439V2.65885C10.2008 -0.189375 5.50694 -0.113371 2.65871 2.82854C1.31641 4.215 0.567586 6.07021 0.571303 7.99998C0.571303 8.31559 0.82714 8.57142 1.14274 8.57142C1.45834 8.57142 1.71415 8.31559 1.71415 7.99998C1.71485 4.52849 4.52959 1.71482 8.00112 1.71552C9.76419 1.71586 11.446 2.45665 12.6365 3.75713L10.105 4.60111C9.80524 4.70086 9.64302 5.02473 9.74276 5.32453C9.8425 5.62433 10.1664 5.78655 10.4662 5.6868L13.8947 4.54396C14.1288 4.46601 14.2864 4.24664 14.2856 3.99997V0.571406C14.2856 0.255837 14.0297 0 13.7141 0Z" fill="#FAFAFA"/>
<path d="M14.8568 7.42859C14.5412 7.42859 14.2853 7.68443 14.2853 8.00003C14.2846 11.4715 11.4699 14.2852 7.99836 14.2845C6.23529 14.2841 4.55345 13.5433 3.36303 12.2429L5.89445 11.3989C6.19425 11.2991 6.35647 10.9753 6.25672 10.6755C6.15698 10.3757 5.83311 10.2135 5.53331 10.3132L2.10474 11.456C1.8707 11.534 1.7131 11.7534 1.71387 12V15.4286C1.71387 15.7442 1.96971 16 2.28531 16C2.60091 16 2.85675 15.7442 2.85675 15.4286V13.3411C5.79869 16.1894 10.4925 16.1134 13.3407 13.1715C14.683 11.785 15.4319 9.9298 15.4281 8.00003C15.4282 7.68443 15.1724 7.42859 14.8568 7.42859Z" fill="#FAFAFA"/>
</g>
<defs>
<clipPath id="clip0_212_4807">
<rect width="16" height="16" fill="white"/>
</clipPath>
</defs>
</svg>
