<svg width="18" height="28" viewBox="0 0 18 28" fill="none" xmlns="http://www.w3.org/2000/svg">
<path fill-rule="evenodd" clip-rule="evenodd" d="M9.00021 27.1249C9.24885 27.1249 9.4873 27.0261 9.66312 26.8503C9.83894 26.6745 9.93771 26.436 9.93771 26.1874V4.07553L15.8365 9.97616C16.0125 10.1522 16.2513 10.2511 16.5002 10.2511C16.7492 10.2511 16.9879 10.1522 17.164 9.97616C17.34 9.80012 17.4389 9.56136 17.4389 9.31241C17.4389 9.06345 17.34 8.82469 17.164 8.64866L9.66396 1.14866C9.57687 1.06135 9.47342 0.992082 9.35952 0.94482C9.24562 0.897558 9.12352 0.87323 9.00021 0.87323C8.87689 0.87323 8.75479 0.897558 8.64089 0.94482C8.527 0.992082 8.42354 1.06135 8.33646 1.14866L0.836457 8.64866C0.749293 8.73582 0.68015 8.8393 0.632977 8.95319C0.585803 9.06707 0.561523 9.18914 0.561523 9.31241C0.561523 9.56136 0.66042 9.80012 0.836457 9.97616C1.01249 10.1522 1.25125 10.2511 1.50021 10.2511C1.74916 10.2511 1.98792 10.1522 2.16396 9.97616L8.06271 4.07553V26.1874C8.06271 26.436 8.16148 26.6745 8.3373 26.8503C8.51311 27.0261 8.75157 27.1249 9.00021 27.1249Z" fill="#5CFF00"/>
</svg>
